# xmcd CD database file
#
# Track frame offsets:
#	150
#	20137
#	42177
#	62164
#	95420
#
# Disc length: 1286 seconds
#
# Revision: 0
# Processed by: cddbd v1.5PL3 Copyright (c) Steve Scherf et al.
# Submitted via: CDex 1.40Release
#
DISCID=3d050405
DTITLE=VANITY - Chanceはあげない
DYEAR=1996
DGENRE=Rock
TTITLE0=Chanceはあげない
TTITLE1=わがままなJustice
TTITLE2=Chanceはあげない(TV MIX)
TTITLE3=わがままなJustice(TV MIX)
TTITLE4=データ
EXTD=YEAR: 1996
EXTT0=
EXTT1=
EXTT2=
EXTT3=
EXTT4=
PLAYORDER=
